<svg id="facebook" xmlns="http://www.w3.org/2000/svg" width="35" height="35" viewBox="0 0 35 35">
  <defs>
    <style>
      .cls-1 {
        fill: #d5d5d5;
      }
    </style>
  </defs>
  <path id="Path_7" data-name="Path 7" class="cls-1" d="M291.294,508.668q-.219.036-.439.066Q291.075,508.7,291.294,508.668Zm0,0" transform="translate(-270.972 -473.896)"/>
  <path id="Path_8" data-name="Path 8" class="cls-1" d="M299.549,507.793l-.209.037Zm0,0" transform="translate(-278.877 -473.081)"/>
  <path id="Path_9" data-name="Path 9" class="cls-1" d="M278.124,510.34q-.256.029-.515.051Q277.868,510.369,278.124,510.34Zm0,0" transform="translate(-258.632 -475.453)"/>
  <path id="Path_10" data-name="Path 10" class="cls-1" d="M286.692,509.738l-.247.031Zm0,0" transform="translate(-266.864 -474.893)"/>
  <path id="Path_11" data-name="Path 11" class="cls-1" d="M306.849,506.41l-.185.039Zm0,0" transform="translate(-285.701 -471.792)"/>
  <path id="Path_12" data-name="Path 12" class="cls-1" d="M324.633,502.113l-.149.041Zm0,0" transform="translate(-302.303 -467.789)"/>
  <path id="Path_13" data-name="Path 13" class="cls-1" d="M319.221,503.543l-.162.042Zm0,0" transform="translate(-297.248 -469.121)"/>
  <path id="Path_14" data-name="Path 14" class="cls-1" d="M312.239,505.254l-.172.039Zm0,0" transform="translate(-290.734 -470.715)"/>
  <path id="Path_15" data-name="Path 15" class="cls-1" d="M273.757,511.09l-.277.021Zm0,0" transform="translate(-254.785 -476.152)"/>
  <path id="Path_16" data-name="Path 16" class="cls-1" d="M35,17.5A17.5,17.5,0,1,0,17.5,35c.1,0,.205,0,.308,0V21.373h-3.76V16.991h3.76V13.767c0-3.739,2.283-5.775,5.619-5.775a30.95,30.95,0,0,1,3.371.172v3.908H24.5c-1.815,0-2.166.863-2.166,2.128v2.791H26.67L26.1,21.373H22.331V34.324A17.509,17.509,0,0,0,35,17.5Zm0,0"/>
  <path id="Path_17" data-name="Path 17" class="cls-1" d="M265.439,511.43q-.273.018-.548.027Q265.166,511.448,265.439,511.43Zm0,0" transform="translate(-246.783 -476.469)"/>
  <path id="Path_18" data-name="Path 18" class="cls-1" d="M260.795,511.836l-.291.007Zm0,0" transform="translate(-242.696 -476.847)"/>
</svg>
