<?xml version="1.0" encoding="UTF-8"?>
<svg xmlns="http://www.w3.org/2000/svg" xmlns:xlink="http://www.w3.org/1999/xlink" width="29pt" height="29pt" viewBox="0 0 29 29" version="1.1">
<g id="surface1">
<path style=" stroke:none;fill-rule:nonzero;fill:rgb(83.529412%,83.529412%,83.529412%);fill-opacity:1;" d="M 4.660156 6.214844 C 5.347656 6.203125 6.011719 6.480469 6.488281 6.972656 C 6.984375 7.453125 7.261719 8.117188 7.25 8.804688 L 7.25 26.410156 C 7.261719 27.097656 6.984375 27.761719 6.488281 28.238281 C 6.011719 28.734375 5.347656 29.011719 4.660156 29 L 2.589844 29 C 1.902344 29.011719 1.238281 28.734375 0.761719 28.238281 C 0.265625 27.761719 -0.0117188 27.097656 0 26.410156 L 0 8.804688 C -0.0117188 8.117188 0.265625 7.453125 0.761719 6.972656 C 1.238281 6.480469 1.902344 6.203125 2.589844 6.214844 Z M 26.929688 8.851562 C 27.550781 9.214844 28.070312 9.734375 28.433594 10.355469 C 28.808594 10.984375 29.003906 11.699219 29 12.429688 L 29 24.859375 C 29 27.144531 27.144531 29 24.855469 29 L 10.875 29 C 9.445312 28.996094 8.289062 27.839844 8.285156 26.410156 L 8.285156 1.554688 C 8.277344 1.140625 8.441406 0.742188 8.738281 0.453125 C 9.027344 0.15625 9.425781 -0.0078125 9.839844 0 L 20.714844 0 C 21.207031 0.0117188 21.6875 0.125 22.136719 0.324219 C 22.59375 0.5 23.011719 0.765625 23.367188 1.101562 L 25.828125 3.558594 C 26.164062 3.914062 26.429688 4.332031 26.605469 4.789062 C 26.804688 5.238281 26.914062 5.722656 26.929688 6.210938 Z M 15.019531 24.855469 L 15.019531 22.785156 C 15.023438 22.648438 14.972656 22.511719 14.871094 22.414062 C 14.773438 22.316406 14.640625 22.261719 14.5 22.269531 L 12.429688 22.269531 C 12.289062 22.261719 12.15625 22.316406 12.054688 22.414062 C 11.957031 22.511719 11.90625 22.648438 11.910156 22.785156 L 11.910156 24.855469 C 11.90625 24.996094 11.957031 25.132812 12.054688 25.230469 C 12.15625 25.328125 12.289062 25.378906 12.429688 25.375 L 14.5 25.375 C 14.640625 25.378906 14.773438 25.328125 14.871094 25.230469 C 14.972656 25.132812 15.023438 24.996094 15.019531 24.855469 Z M 15.019531 20.714844 L 15.019531 18.644531 C 15.023438 18.503906 14.972656 18.367188 14.871094 18.269531 C 14.773438 18.171875 14.640625 18.121094 14.5 18.125 L 12.429688 18.125 C 12.289062 18.121094 12.15625 18.171875 12.054688 18.269531 C 11.957031 18.367188 11.90625 18.503906 11.910156 18.644531 L 11.910156 20.714844 C 11.90625 20.851562 11.957031 20.988281 12.054688 21.085938 C 12.15625 21.183594 12.289062 21.238281 12.429688 21.230469 L 14.5 21.230469 C 14.640625 21.238281 14.773438 21.183594 14.871094 21.085938 C 14.972656 20.988281 15.023438 20.851562 15.019531 20.714844 Z M 15.019531 16.570312 L 15.019531 14.5 C 15.023438 14.359375 14.972656 14.226562 14.871094 14.128906 C 14.773438 14.027344 14.640625 13.976562 14.5 13.980469 L 12.429688 13.980469 C 12.289062 13.976562 12.15625 14.027344 12.054688 14.128906 C 11.957031 14.226562 11.90625 14.359375 11.910156 14.5 L 11.910156 16.570312 C 11.90625 16.710938 11.957031 16.84375 12.054688 16.945312 C 12.15625 17.042969 12.289062 17.09375 12.429688 17.089844 L 14.5 17.089844 C 14.640625 17.09375 14.773438 17.042969 14.871094 16.945312 C 14.972656 16.84375 15.023438 16.710938 15.019531 16.570312 Z M 19.160156 24.855469 L 19.160156 22.785156 C 19.167969 22.648438 19.113281 22.511719 19.015625 22.414062 C 18.917969 22.316406 18.78125 22.261719 18.644531 22.269531 L 16.570312 22.269531 C 16.433594 22.261719 16.296875 22.316406 16.199219 22.414062 C 16.101562 22.511719 16.046875 22.648438 16.054688 22.785156 L 16.054688 24.855469 C 16.046875 24.996094 16.101562 25.132812 16.199219 25.230469 C 16.296875 25.328125 16.433594 25.378906 16.570312 25.375 L 18.640625 25.375 C 18.78125 25.378906 18.914062 25.328125 19.015625 25.230469 C 19.113281 25.132812 19.164062 24.996094 19.160156 24.855469 Z M 19.160156 20.714844 L 19.160156 18.644531 C 19.167969 18.503906 19.113281 18.367188 19.015625 18.269531 C 18.917969 18.171875 18.78125 18.121094 18.644531 18.125 L 16.570312 18.125 C 16.433594 18.121094 16.296875 18.171875 16.199219 18.269531 C 16.101562 18.367188 16.046875 18.503906 16.054688 18.644531 L 16.054688 20.714844 C 16.046875 20.851562 16.101562 20.988281 16.199219 21.085938 C 16.296875 21.183594 16.433594 21.238281 16.570312 21.230469 L 18.640625 21.230469 C 18.78125 21.238281 18.914062 21.183594 19.015625 21.085938 C 19.113281 20.988281 19.164062 20.851562 19.160156 20.714844 Z M 19.160156 16.570312 L 19.160156 14.5 C 19.167969 14.359375 19.113281 14.226562 19.015625 14.128906 C 18.917969 14.027344 18.78125 13.976562 18.644531 13.980469 L 16.570312 13.980469 C 16.433594 13.976562 16.296875 14.027344 16.199219 14.128906 C 16.101562 14.226562 16.046875 14.359375 16.054688 14.5 L 16.054688 16.570312 C 16.046875 16.710938 16.101562 16.84375 16.199219 16.945312 C 16.296875 17.042969 16.433594 17.09375 16.570312 17.089844 L 18.640625 17.089844 C 18.78125 17.09375 18.914062 17.042969 19.015625 16.945312 C 19.113281 16.84375 19.164062 16.710938 19.160156 16.570312 Z M 23.304688 24.855469 L 23.304688 22.785156 C 23.308594 22.648438 23.257812 22.511719 23.160156 22.414062 C 23.058594 22.316406 22.925781 22.261719 22.785156 22.269531 L 20.714844 22.269531 C 20.574219 22.261719 20.441406 22.316406 20.339844 22.414062 C 20.242188 22.511719 20.191406 22.648438 20.195312 22.785156 L 20.195312 24.855469 C 20.191406 24.996094 20.242188 25.132812 20.339844 25.230469 C 20.441406 25.328125 20.574219 25.378906 20.714844 25.375 L 22.785156 25.375 C 22.921875 25.378906 23.058594 25.328125 23.15625 25.230469 C 23.253906 25.132812 23.308594 24.996094 23.304688 24.855469 Z M 23.304688 20.714844 L 23.304688 18.644531 C 23.308594 18.503906 23.257812 18.367188 23.160156 18.269531 C 23.058594 18.171875 22.925781 18.121094 22.785156 18.125 L 20.714844 18.125 C 20.574219 18.121094 20.441406 18.171875 20.339844 18.269531 C 20.242188 18.367188 20.191406 18.503906 20.195312 18.644531 L 20.195312 20.714844 C 20.191406 20.851562 20.242188 20.988281 20.339844 21.085938 C 20.441406 21.183594 20.574219 21.238281 20.714844 21.230469 L 22.785156 21.230469 C 22.921875 21.238281 23.058594 21.183594 23.15625 21.085938 C 23.253906 20.988281 23.308594 20.851562 23.304688 20.714844 Z M 23.304688 16.570312 L 23.304688 14.5 C 23.308594 14.359375 23.257812 14.226562 23.160156 14.128906 C 23.058594 14.027344 22.925781 13.976562 22.785156 13.980469 L 20.714844 13.980469 C 20.574219 13.976562 20.441406 14.027344 20.339844 14.128906 C 20.242188 14.226562 20.191406 14.359375 20.195312 14.5 L 20.195312 16.570312 C 20.191406 16.710938 20.242188 16.84375 20.339844 16.945312 C 20.441406 17.042969 20.574219 17.09375 20.714844 17.089844 L 22.785156 17.089844 C 22.921875 17.09375 23.058594 17.042969 23.15625 16.945312 C 23.253906 16.84375 23.308594 16.710938 23.304688 16.570312 Z M 24.859375 10.355469 L 24.859375 6.214844 L 22.269531 6.214844 C 21.855469 6.214844 21.460938 6.050781 21.167969 5.761719 C 20.875 5.46875 20.710938 5.074219 20.714844 4.660156 L 20.714844 2.070312 L 10.355469 2.070312 L 10.355469 10.355469 Z M 24.859375 10.355469 "/>
</g>
</svg>
