<svg id="Component_2_2" data-name="Component 2 – 2" xmlns="http://www.w3.org/2000/svg" xmlns:xlink="http://www.w3.org/1999/xlink" width="103" height="103" viewBox="0 0 103 103">
  <defs>
    <style>
      .cls-1 {
        fill: #a2a2a2;
      }

      .cls-2 {
        clip-path: url(#clip-path);
      }

      .cls-3 {
        fill: #404d5a;
      }
    </style>
    <clipPath id="clip-path">
      <rect id="Rectangle_286" data-name="Rectangle 286" class="cls-1" width="103" height="103" transform="translate(549 1619)"/>
    </clipPath>
  </defs>
  <g id="Mask_Group_3" data-name="Mask Group 3" class="cls-2" transform="translate(-549 -1619)">
    <g id="shield" transform="translate(559.409 1627.689)">
      <g id="Group_20" data-name="Group 20" transform="translate(39.577 6.066)">
        <g id="Group_19" data-name="Group 19">
          <path id="Path_41" data-name="Path 41" class="cls-3" d="M51,8.049a1.514,1.514,0,1,0,1.515,1.515A1.511,1.511,0,0,0,51,8.049Z" transform="translate(-49.49 -8.049)"/>
        </g>
      </g>
      <g id="Group_22" data-name="Group 22" transform="translate(9.254)">
        <g id="Group_21" data-name="Group 21">
          <path id="Path_42" data-name="Path 42" class="cls-3" d="M71.412,9.1a7.589,7.589,0,0,1-7.58-7.58A1.516,1.516,0,0,0,62.316,0H19.866A1.516,1.516,0,0,0,18.35,1.516,7.589,7.589,0,0,1,10.77,9.1a1.516,1.516,0,0,0-1.516,1.516V35.353a44.036,44.036,0,0,0,31.4,42.205,1.516,1.516,0,0,0,.871,0,44.041,44.041,0,0,0,31.4-42.205V10.612A1.516,1.516,0,0,0,71.412,9.1ZM69.9,35.353A40.772,40.772,0,0,1,41.091,74.521,40.993,40.993,0,0,1,12.286,35.353V12.021a10.637,10.637,0,0,0,8.988-8.988H60.908A10.637,10.637,0,0,0,69.9,12.021Z" transform="translate(-9.254)"/>
        </g>
      </g>
      <g id="Group_24" data-name="Group 24" transform="translate(15.318 6.064)">
        <g id="Group_23" data-name="Group 23">
          <path id="Path_43" data-name="Path 43" class="cls-3" d="M67.939,16a13.656,13.656,0,0,1-7.05-7.05A1.516,1.516,0,0,0,59.5,8.047H49.135a1.516,1.516,0,0,0,0,3.032h9.407a16.666,16.666,0,0,0,7.273,7.273V37.336A34.536,34.536,0,0,1,43.074,70.1,34.536,34.536,0,0,1,20.333,37.336V18.352a16.667,16.667,0,0,0,7.273-7.273h9.407a1.516,1.516,0,1,0,0-3.032H26.647a1.516,1.516,0,0,0-1.389.908A13.656,13.656,0,0,1,18.209,16a1.516,1.516,0,0,0-.908,1.389V37.336a37.741,37.741,0,0,0,25.267,35.8,1.516,1.516,0,0,0,1.012,0,37.741,37.741,0,0,0,25.267-35.8V17.393A1.516,1.516,0,0,0,67.939,16Z" transform="translate(-17.301 -8.047)"/>
        </g>
      </g>
      <g id="Group_26" data-name="Group 26" transform="translate(27.447 22.134)">
        <g id="Group_25" data-name="Group 25">
          <path id="Path_44" data-name="Path 44" class="cls-3" d="M47.039,29.371A13.645,13.645,0,1,0,60.684,43.016,13.66,13.66,0,0,0,47.039,29.371Zm0,24.257A10.612,10.612,0,1,1,57.652,43.016,10.624,10.624,0,0,1,47.039,53.628Z" transform="translate(-33.395 -29.371)"/>
        </g>
      </g>
      <g id="Group_28" data-name="Group 28" transform="translate(35.027 31.231)">
        <g id="Group_27" data-name="Group 27">
          <path id="Path_45" data-name="Path 45" class="cls-3" d="M56.654,41.885a1.517,1.517,0,0,0-2.144,0L48,48.394l-1.96-1.96A1.516,1.516,0,0,0,43.9,48.578l3.032,3.032a1.516,1.516,0,0,0,2.144,0l7.58-7.58A1.516,1.516,0,0,0,56.654,41.885Z" transform="translate(-43.453 -41.441)"/>
        </g>
      </g>
    </g>
  </g>
</svg>
