<svg id="instagram_1_" data-name="instagram (1)" xmlns="http://www.w3.org/2000/svg" width="28.9" height="28.9" viewBox="0 0 28.9 28.9">
  <path id="Path_4" data-name="Path 4" d="M21.076,0H7.822A7.832,7.832,0,0,0,0,7.823V21.078A7.832,7.832,0,0,0,7.822,28.9H21.077A7.832,7.832,0,0,0,28.9,21.078V7.823A7.832,7.832,0,0,0,21.076,0ZM14.449,22.352a7.9,7.9,0,1,1,7.9-7.9A7.911,7.911,0,0,1,14.449,22.352ZM22.541,8.412a2.335,2.335,0,1,1,2.335-2.335A2.337,2.337,0,0,1,22.541,8.412Zm0,0" transform="translate(0.001 0)" fill="#fff"/>
  <path id="Path_5" data-name="Path 5" d="M152.228,146.02a6.208,6.208,0,1,0,6.208,6.208A6.215,6.215,0,0,0,152.228,146.02Zm0,0" transform="translate(-137.778 -137.778)" fill="#fff"/>
  <path id="Path_6" data-name="Path 6" d="M388.633,96.3a.641.641,0,1,0,.641.641A.642.642,0,0,0,388.633,96.3Zm0,0" transform="translate(-366.092 -90.865)" fill="#fff"/>
</svg>
