<?xml version="1.0" encoding="UTF-8"?>
<svg xmlns="http://www.w3.org/2000/svg" xmlns:xlink="http://www.w3.org/1999/xlink" width="30pt" height="29pt" viewBox="0 0 30 29" version="1.1">
<g id="surface1">
<path style=" stroke:none;fill-rule:nonzero;fill:rgb(83.529412%,83.529412%,83.529412%);fill-opacity:1;" d="M 29.460938 7.425781 L 21.144531 15.378906 L 29.460938 23.332031 C 29.488281 23.171875 29.5 23.011719 29.503906 22.851562 L 29.503906 7.90625 C 29.5 7.746094 29.488281 7.585938 29.460938 7.425781 Z M 29.460938 7.425781 "/>
<path style=" stroke:none;fill-rule:nonzero;fill:rgb(83.529412%,83.529412%,83.529412%);fill-opacity:1;" d="M 16.699219 17.476562 L 28.761719 5.8125 C 28.152344 5.039062 27.226562 4.589844 26.25 4.585938 L 3.546875 4.585938 C 2.566406 4.589844 1.644531 5.039062 1.035156 5.8125 L 13.089844 17.476562 C 14.113281 18.425781 15.679688 18.425781 16.699219 17.476562 Z M 16.699219 17.476562 "/>
<path style=" stroke:none;fill-rule:nonzero;fill:rgb(83.529412%,83.529412%,83.529412%);fill-opacity:1;" d="M 0.332031 7.425781 C 0.308594 7.585938 0.292969 7.746094 0.292969 7.910156 L 0.292969 22.851562 C 0.292969 23.011719 0.308594 23.171875 0.332031 23.332031 L 8.648438 15.378906 Z M 0.332031 7.425781 "/>
<path style=" stroke:none;fill-rule:nonzero;fill:rgb(83.529412%,83.529412%,83.529412%);fill-opacity:1;" d="M 17.8125 18.679688 C 16.171875 20.234375 13.621094 20.234375 11.980469 18.679688 L 9.746094 16.515625 L 1.035156 24.941406 C 1.644531 25.710938 2.566406 26.164062 3.542969 26.167969 L 26.25 26.167969 C 27.226562 26.164062 28.148438 25.710938 28.757812 24.941406 L 20.046875 16.515625 Z M 17.8125 18.679688 "/>
</g>
</svg>
