<svg id="Flat_copy" xmlns="http://www.w3.org/2000/svg" width="26.881" height="25.693" viewBox="0 0 26.881 25.693">
  <path id="Flat_copy-2" data-name="Flat_copy" d="M26.881,26.4V16.46c0-5.326-2.843-7.8-6.633-7.8a5.718,5.718,0,0,0-5.193,2.864V9.063H9.292c.076,1.627,0,17.335,0,17.335h5.763V16.718a3.926,3.926,0,0,1,.19-1.4A3.152,3.152,0,0,1,18.2,13.206c2.086,0,2.919,1.589,2.919,3.92V26.4h5.762ZM3.221,6.7A3,3,0,1,0,3.26.707,3,3,0,1,0,3.185,6.7ZM6.1,26.4V9.063H.341V26.4Z" transform="translate(0 -0.707)" fill="#fff"/>
</svg>
