<?xml version="1.0" encoding="UTF-8"?>
<svg xmlns="http://www.w3.org/2000/svg" xmlns:xlink="http://www.w3.org/1999/xlink" width="29pt" height="29pt" viewBox="0 0 29 29" version="1.1">
<g id="surface1">
<path style=" stroke:none;fill-rule:nonzero;fill:rgb(83.529412%,83.529412%,83.529412%);fill-opacity:1;" d="M 23.976562 9.253906 C 23.253906 5.410156 20.296875 2.375 16.472656 1.550781 C 16.125 1.453125 15.765625 1.390625 15.402344 1.367188 C 14.917969 1.324219 14.429688 1.316406 13.941406 1.355469 C 13.664062 1.371094 13.386719 1.410156 13.117188 1.476562 C 10.015625 1.925781 7.351562 3.902344 6.015625 6.738281 C 4.910156 8.804688 4.757812 11.25 5.597656 13.433594 C 6.261719 15.109375 7.09375 16.714844 8.082031 18.21875 C 9.730469 20.769531 11.546875 23.203125 13.519531 25.511719 C 13.859375 25.921875 14.214844 26.324219 14.578125 26.75 C 14.675781 26.640625 14.757812 26.558594 14.828125 26.472656 C 16.511719 24.550781 18.097656 22.546875 19.578125 20.464844 C 20.980469 18.558594 22.195312 16.519531 23.203125 14.378906 C 23.984375 12.789062 24.253906 11 23.976562 9.253906 Z M 14.574219 15.328125 C 11.742188 15.328125 9.402344 13.105469 9.257812 10.273438 C 9.257812 10.1875 9.257812 10.097656 9.257812 10.003906 C 9.257812 9.910156 9.257812 9.824219 9.257812 9.730469 C 9.40625 6.902344 11.742188 4.683594 14.574219 4.683594 C 17.410156 4.683594 19.746094 6.902344 19.894531 9.730469 C 19.894531 9.824219 19.902344 9.910156 19.902344 10.003906 C 19.902344 10.097656 19.902344 10.1875 19.894531 10.273438 C 19.753906 13.109375 17.414062 15.332031 14.574219 15.328125 Z M 14.574219 15.328125 "/>
</g>
</svg>
