<svg xmlns="http://www.w3.org/2000/svg" width="31" height="31" viewBox="0 0 31 31">
  <path id="Subtraction_1" data-name="Subtraction 1" d="M15.5,16A15.4,15.4,0,0,1,4.54,11.46,15.4,15.4,0,0,1,0,.5,15.4,15.4,0,0,1,4.54-10.46a15.5,15.5,0,0,1,21.92,0A15.4,15.4,0,0,1,31,.5a15.4,15.4,0,0,1-4.54,10.96A15.4,15.4,0,0,1,15.5,16ZM10.792-7a1.312,1.312,0,0,0-.938.375L8.5-5.269c-.66.695-.666,1.959-.018,3.562A15.942,15.942,0,0,0,12,3.3c2.446,2.446,5.23,4.027,7.092,4.027A2,2,0,0,0,20.565,6.8l1.357-1.356a1.435,1.435,0,0,0,0-1.928l-2-2a1.352,1.352,0,0,0-.961-.4,1.291,1.291,0,0,0-1.252.9,1.352,1.352,0,0,1-1.285.889,1.329,1.329,0,0,1-.287-.031A6.111,6.111,0,0,1,12.425-.842a1.164,1.164,0,0,1,.107-.946,1.371,1.371,0,0,1,.75-.625,1.27,1.27,0,0,0,.859-.921,1.352,1.352,0,0,0-.36-1.292l-2-2A1.505,1.505,0,0,0,10.792-7Z" transform="translate(0 15)" fill="#fff"/>
</svg>
