<svg id="Component_3_2" data-name="Component 3 – 2" xmlns="http://www.w3.org/2000/svg" xmlns:xlink="http://www.w3.org/1999/xlink" width="103" height="103" viewBox="0 0 103 103">
  <defs>
    <style>
      .cls-1 {
        fill: #404d5a;
      }

      .cls-2 {
        clip-path: url(#clip-path);
      }
    </style>
    <clipPath id="clip-path">
      <rect id="Rectangle_285" data-name="Rectangle 285" class="cls-1" width="103" height="103" transform="translate(743 1619)"/>
    </clipPath>
  </defs>
  <g id="Mask_Group_2" data-name="Mask Group 2" class="cls-2" transform="translate(-743 -1619)">
    <g id="money" transform="translate(743 1619)">
      <g id="Group_8" data-name="Group 8" transform="translate(58.378 51.531)">
        <g id="Group_7" data-name="Group 7" transform="translate(0 0)">
          <path id="Path_35" data-name="Path 35" class="cls-1" d="M66.914,62.831a3.011,3.011,0,1,1,3.443-2.98,1.565,1.565,0,1,0,3.13,0,6.226,6.226,0,0,0-5.007-5.933v-.814a1.565,1.565,0,0,0-3.13,0v.814a6.226,6.226,0,0,0-5.007,5.933,6.361,6.361,0,0,0,6.572,6.109,3.011,3.011,0,1,1-3.443,2.98,1.565,1.565,0,0,0-3.13,0,6.226,6.226,0,0,0,5.007,5.933v.676a1.565,1.565,0,0,0,3.13,0v-.676a6.226,6.226,0,0,0,5.007-5.933A6.361,6.361,0,0,0,66.914,62.831Z" transform="translate(-60.342 -51.54)"/>
        </g>
      </g>
      <g id="Group_10" data-name="Group 10" transform="translate(71.517 45.989)">
        <g id="Group_9" data-name="Group 9" transform="translate(0 0)">
          <path id="Path_36" data-name="Path 36" class="cls-1" d="M87.806,51.941a20.388,20.388,0,0,0-8.328-7.37,1.565,1.565,0,1,0-1.356,2.821,17.227,17.227,0,0,1,7.759,23.6,1.565,1.565,0,1,0,2.763,1.47,20.365,20.365,0,0,0-.838-20.516Z" transform="translate(-77.235 -44.416)"/>
        </g>
      </g>
      <g id="Group_12" data-name="Group 12" transform="translate(65.74 44.146)">
        <g id="Group_11" data-name="Group 11" transform="translate(0 0)">
          <path id="Path_37" data-name="Path 37" class="cls-1" d="M71.477,42.045h-.105a1.565,1.565,0,1,0,0,3.13h.1a1.565,1.565,0,0,0,.007-3.13Z" transform="translate(-69.807 -42.045)"/>
        </g>
      </g>
      <g id="Group_14" data-name="Group 14" transform="translate(44.615 54.115)">
        <g id="Group_13" data-name="Group 13" transform="translate(0 0)">
          <path id="Path_38" data-name="Path 38" class="cls-1" d="M55.543,80.758a17.228,17.228,0,0,1-7.759-23.6,1.565,1.565,0,1,0-2.763-1.47,20.351,20.351,0,0,0,9.166,27.887,1.565,1.565,0,1,0,1.356-2.821Z" transform="translate(-42.649 -54.862)"/>
        </g>
      </g>
      <g id="Group_16" data-name="Group 16" transform="translate(60.948 81.7)">
        <g id="Group_15" data-name="Group 15" transform="translate(0 0)">
          <path id="Path_39" data-name="Path 39" class="cls-1" d="M65.309,90.326h-.091a1.565,1.565,0,0,0-.014,3.13h.1a1.565,1.565,0,0,0,0-3.13Z" transform="translate(-63.646 -90.326)"/>
        </g>
      </g>
      <g id="Group_18" data-name="Group 18" transform="translate(11.441 11.911)">
        <g id="Group_17" data-name="Group 17" transform="translate(0 0)">
          <path id="Path_40" data-name="Path 40" class="cls-1" d="M60.622,27.544a7.183,7.183,0,0,0-.7-1.278H64a7.2,7.2,0,1,0,0-14.4H51.469A7.193,7.193,0,0,0,45.535.6H7.2A7.2,7.2,0,1,0,7.2,15H19.729a7.178,7.178,0,0,0,0,8.137H15.648a7.194,7.194,0,0,0-4.473,12.831,7.185,7.185,0,0,0,0,11.267,7.185,7.185,0,0,0,0,11.267,7.194,7.194,0,0,0,4.473,12.831H34.089A26.6,26.6,0,1,0,60.622,27.544ZM64,15a4.068,4.068,0,1,1,0,8.137H25.663a4.068,4.068,0,0,1,0-8.137ZM7.2,11.87a4.068,4.068,0,1,1,0-8.137H45.535a4.068,4.068,0,0,1,0,8.137Zm8.45,14.4H53.985a4.066,4.066,0,0,1,1.775.409c-.74-.062-1.488-.1-2.245-.1A26.519,26.519,0,0,0,34.692,34.4H15.648a4.068,4.068,0,1,1,0-8.137Zm0,11.267h16.37A26.526,26.526,0,0,0,28,45.67H15.648a4.068,4.068,0,1,1,0-8.137Zm0,11.267h11.63a26.623,26.623,0,0,0-.1,8.137H15.648a4.068,4.068,0,0,1,0-8.137Zm0,19.4a4.068,4.068,0,0,1,0-8.137H27.82A26.5,26.5,0,0,0,31.574,68.2Zm37.868,8.45A23.472,23.472,0,1,1,76.988,53.181,23.5,23.5,0,0,1,53.516,76.653Z" transform="translate(0 -0.604)"/>
        </g>
      </g>
    </g>
  </g>
</svg>
