<svg id="Component_4_2" data-name="Component 4 – 2" xmlns="http://www.w3.org/2000/svg" xmlns:xlink="http://www.w3.org/1999/xlink" width="103" height="103" viewBox="0 0 103 103">
  <defs>
    <style>
      .cls-1 {
        fill: #404d5a;
      }

      .cls-2 {
        clip-path: url(#clip-path);
      }
    </style>
    <clipPath id="clip-path">
      <rect id="Rectangle_284" data-name="Rectangle 284" class="cls-1" width="103" height="103" transform="translate(937 1619)"/>
    </clipPath>
  </defs>
  <g id="Mask_Group_1" data-name="Mask Group 1" class="cls-2" transform="translate(-937 -1619)">
    <g id="badge" transform="translate(958.255 1629.042)">
      <path id="Path_32" data-name="Path 32" class="cls-1" d="M58.973,26.01,55.08,21.287a4.178,4.178,0,0,1-.939-2.268l-.587-6.093a6.67,6.67,0,0,0-5.989-5.989L41.471,6.35A4.187,4.187,0,0,1,39.2,5.411L34.48,1.517a6.67,6.67,0,0,0-8.47,0L21.287,5.411a4.183,4.183,0,0,1-2.268.939l-6.093.586a6.671,6.671,0,0,0-5.989,5.989L6.35,19.018a4.187,4.187,0,0,1-.939,2.268L1.517,26.01a6.67,6.67,0,0,0,0,8.47L5.411,39.2a4.187,4.187,0,0,1,.939,2.269l.586,6.093a6.671,6.671,0,0,0,5.989,5.989l3.724.359L7.8,75.055a1.612,1.612,0,0,0,1.925,2.171L17.4,75.059a.07.07,0,0,1,.081.032l3.844,6.99a1.6,1.6,0,0,0,1.409.834l.084,0a1.6,1.6,0,0,0,1.406-.987L33.569,59.6a6.636,6.636,0,0,0,.912-.63L39.2,55.08a4.177,4.177,0,0,1,2.077-.914l8.461,20.217-5.988-1.69a2.52,2.52,0,0,0-2.9,1.214l-3,5.451-3.972-9.492a1.229,1.229,0,1,0-2.268.949l4.653,11.119a1.6,1.6,0,0,0,1.4.981l.084,0a1.6,1.6,0,0,0,1.409-.835l3.844-6.989a.071.071,0,0,1,.081-.034l7.675,2.167a1.612,1.612,0,0,0,1.926-2.172L43.84,53.911l3.724-.359a6.67,6.67,0,0,0,5.989-5.989l.587-6.093A4.176,4.176,0,0,1,55.08,39.2l3.893-4.723a6.669,6.669,0,0,0,0-8.47ZM22.637,79.358l-3-5.452a2.519,2.519,0,0,0-2.9-1.213l-5.987,1.69,8.46-20.217a4.181,4.181,0,0,1,2.077.913l4.723,3.894a6.646,6.646,0,0,0,4.235,1.517c.1,0,.193,0,.29-.007ZM57.076,32.916l-3.893,4.723a6.63,6.63,0,0,0-1.49,3.6l-.586,6.093a4.206,4.206,0,0,1-3.777,3.777l-5.352.516c-.021,0-.042,0-.063.006l-.678.065a6.634,6.634,0,0,0-3.6,1.49l-4.723,3.893a4.206,4.206,0,0,1-5.342,0l-4.723-3.893a6.629,6.629,0,0,0-3.6-1.49l-.681-.066-.056-.005-5.356-.516a4.206,4.206,0,0,1-3.777-3.777L8.8,41.236a6.63,6.63,0,0,0-1.49-3.6L3.415,32.916a4.206,4.206,0,0,1,0-5.342l3.893-4.723a6.63,6.63,0,0,0,1.49-3.6l.586-6.093a4.206,4.206,0,0,1,3.777-3.777L19.254,8.8a6.634,6.634,0,0,0,3.6-1.49l4.723-3.893a4.205,4.205,0,0,1,5.342,0l4.723,3.893a6.629,6.629,0,0,0,3.6,1.49l6.093.586a4.206,4.206,0,0,1,3.777,3.777l.586,6.093a6.63,6.63,0,0,0,1.49,3.6l3.893,4.723a4.208,4.208,0,0,1,0,5.342Zm0,0" transform="translate(0 0)"/>
      <path id="Path_33" data-name="Path 33" class="cls-1" d="M32.919,13.711a19.4,19.4,0,0,0-2.457.156,1.23,1.23,0,0,0,.312,2.439,16.941,16.941,0,0,1,2.145-.136,16.734,16.734,0,1,1-6.854,1.461,1.229,1.229,0,0,0-1.007-2.243,19.217,19.217,0,1,0,7.861-1.677Zm0,0" transform="translate(-2.673 -2.673)"/>
      <path id="Path_34" data-name="Path 34" class="cls-1" d="M22.136,34a3.764,3.764,0,0,0,0,5.317l5.37,5.371a3.762,3.762,0,0,0,5.318,0L44.546,32.961a3.76,3.76,0,0,0-5.318-5.318l-9.064,9.065L27.453,34a3.764,3.764,0,0,0-5.317,0Zm8.029,5.68a1.229,1.229,0,0,0,.869-.361l9.934-9.934a1.3,1.3,0,0,1,1.84,1.84L31.085,42.945a1.3,1.3,0,0,1-1.84,0l-5.371-5.37a1.3,1.3,0,0,1,1.84-1.84L29.3,39.316a1.23,1.23,0,0,0,.87.361Zm0,0" transform="translate(-4.102 -5.176)"/>
    </g>
  </g>
</svg>
