<svg xmlns="http://www.w3.org/2000/svg" width="74.276" height="73.242" viewBox="0 0 74.276 73.242">
  <defs>
    <style>
      .cls-1 {
        fill: #404d5a;
      }
    </style>
  </defs>
  <g id="settings" transform="translate(-23.681 -24.243)">
    <path id="Path_46" data-name="Path 46" class="cls-1" d="M54.035,64.457a12.8,12.8,0,1,0,6.851,7A12.8,12.8,0,0,0,54.035,64.457Zm3.788,15.525a9.574,9.574,0,1,1,.076-7.327A9.574,9.574,0,0,1,57.823,79.982Z" transform="translate(-0.988 -3.091)"/>
    <path id="Path_47" data-name="Path 47" class="cls-1" d="M72.256,68.923l-2.369-5.9a1.614,1.614,0,0,0-2.1-.894l-3.463,1.393a19.762,19.762,0,0,0-4.249-4.337l1.465-3.435a1.612,1.612,0,0,0-.85-2.119l-5.844-2.493a1.61,1.61,0,0,0-2.119.85l-1.466,3.436a19.7,19.7,0,0,0-6.069-.064L43.8,51.9a1.613,1.613,0,0,0-2.1-.9l-5.9,2.371a1.612,1.612,0,0,0-.894,2.1l1.394,3.463a19.762,19.762,0,0,0-4.337,4.248l-3.436-1.465a1.61,1.61,0,0,0-2.119.85l-2.492,5.844a1.612,1.612,0,0,0,.85,2.119L28.212,72a19.75,19.75,0,0,0-.055,6.073l-3.464,1.391a1.613,1.613,0,0,0-.894,2.1l2.37,5.9a1.614,1.614,0,0,0,2.1.894l3.464-1.394a19.762,19.762,0,0,0,4.248,4.337l-1.465,3.435a1.613,1.613,0,0,0,.851,2.119l5.844,2.487a1.61,1.61,0,0,0,2.119-.849l1.465-3.437a19.723,19.723,0,0,0,6.069.064l1.394,3.463a1.612,1.612,0,0,0,2.1.894l5.9-2.369a1.612,1.612,0,0,0,.893-2.1l-1.4-3.464a19.782,19.782,0,0,0,4.336-4.249l3.436,1.466a1.608,1.608,0,0,0,2.119-.85l2.493-5.844a1.61,1.61,0,0,0-.85-2.114l-3.437-1.465a19.735,19.735,0,0,0,.065-6.071l3.463-1.393A1.612,1.612,0,0,0,72.256,68.923Zm-6.777.987a1.612,1.612,0,0,0-.975,1.833,16.647,16.647,0,0,1-.077,7.34,1.611,1.611,0,0,0,.937,1.851l3.158,1.347-1.228,2.878-3.158-1.346a1.608,1.608,0,0,0-1.986.605,16.624,16.624,0,0,1-5.243,5.136,1.612,1.612,0,0,0-.645,1.972l1.279,3.185-2.9,1.166-1.28-3.184a1.613,1.613,0,0,0-1.495-1.013,1.56,1.56,0,0,0-.337.036,16.647,16.647,0,0,1-7.34-.077,1.606,1.606,0,0,0-1.851.936l-1.347,3.162L38.11,94.509l1.347-3.158a1.613,1.613,0,0,0-.606-1.985,16.616,16.616,0,0,1-5.137-5.243,1.615,1.615,0,0,0-1.972-.645l-3.184,1.28-1.167-2.9,3.184-1.28a1.612,1.612,0,0,0,.975-1.832,16.647,16.647,0,0,1,.077-7.34,1.611,1.611,0,0,0-.937-1.851l-3.158-1.346,1.227-2.878,3.159,1.345a1.607,1.607,0,0,0,1.984-.605,16.643,16.643,0,0,1,5.243-5.136,1.612,1.612,0,0,0,.645-1.973l-1.28-3.183,2.9-1.167,1.28,3.183a1.61,1.61,0,0,0,1.832.975,16.689,16.689,0,0,1,7.34.076,1.61,1.61,0,0,0,1.851-.936l1.347-3.159,2.878,1.228-1.347,3.158a1.613,1.613,0,0,0,.606,1.985,16.626,16.626,0,0,1,5.136,5.244,1.616,1.616,0,0,0,1.973.645L67.5,65.729l1.167,2.9Z" transform="translate(0 -2.102)"/>
    <path id="Path_48" data-name="Path 48" class="cls-1" d="M83.37,36.021a7.83,7.83,0,1,0,7.83,7.83,7.83,7.83,0,0,0-7.83-7.83Zm0,12.435a4.606,4.606,0,1,1,4.606-4.606,4.606,4.606,0,0,1-4.606,4.606Z" transform="translate(-4.091 -0.929)"/>
    <path id="Path_49" data-name="Path 49" class="cls-1" d="M99.507,38.975H97.1a14.908,14.908,0,0,0-1.5-3.626L97.3,33.642a1.612,1.612,0,0,0,0-2.279l-3.3-3.3a1.611,1.611,0,0,0-2.28,0l-1.706,1.707a14.931,14.931,0,0,0-3.626-1.5V25.855a1.611,1.611,0,0,0-1.612-1.612H80.106a1.611,1.611,0,0,0-1.612,1.612v2.411a14.961,14.961,0,0,0-3.626,1.5l-1.706-1.7a1.611,1.611,0,0,0-2.28,0l-3.3,3.3a1.612,1.612,0,0,0,0,2.279l1.706,1.7a14.908,14.908,0,0,0-1.5,3.625H65.374a1.612,1.612,0,0,0-1.612,1.612v4.669a1.612,1.612,0,0,0,1.612,1.612h2.411a14.938,14.938,0,0,0,1.5,3.625L67.582,52.2a1.61,1.61,0,0,0,0,2.279l3.3,3.3a1.611,1.611,0,0,0,2.28,0l1.705-1.7a14.992,14.992,0,0,0,3.626,1.5v2.411A1.611,1.611,0,0,0,80.106,61.6h4.668a1.611,1.611,0,0,0,1.612-1.612V57.577a14.922,14.922,0,0,0,3.626-1.5l1.7,1.7a1.611,1.611,0,0,0,2.28,0l3.3-3.3a1.61,1.61,0,0,0,0-2.279l-1.706-1.707a14.938,14.938,0,0,0,1.5-3.625h2.411a1.612,1.612,0,0,0,1.612-1.612V40.587a1.612,1.612,0,0,0-1.612-1.612Zm-1.612,4.669H95.8a1.613,1.613,0,0,0-1.589,1.336,11.79,11.79,0,0,1-1.993,4.81,1.612,1.612,0,0,0,.18,2.067l1.481,1.481L92.858,54.36l-1.482-1.481a1.613,1.613,0,0,0-2.068-.178,11.8,11.8,0,0,1-4.81,1.991,1.614,1.614,0,0,0-1.336,1.588v2.1H81.718V56.282a1.613,1.613,0,0,0-1.336-1.588,11.8,11.8,0,0,1-4.81-1.993,1.61,1.61,0,0,0-2.068.178L72.023,54.36,71,53.339l1.481-1.481a1.612,1.612,0,0,0,.184-2.067,11.79,11.79,0,0,1-1.993-4.81,1.613,1.613,0,0,0-1.589-1.337h-2.1V42.2H69.08a1.612,1.612,0,0,0,1.589-1.337,11.79,11.79,0,0,1,1.992-4.81,1.61,1.61,0,0,0-.179-2.067L71,32.5l1.022-1.024L73.5,32.961a1.612,1.612,0,0,0,2.067.179,11.8,11.8,0,0,1,4.81-1.993,1.611,1.611,0,0,0,1.337-1.588V27.467h1.444v2.095A1.612,1.612,0,0,0,84.5,31.15a11.8,11.8,0,0,1,4.813,1.989,1.609,1.609,0,0,0,2.067-.178l1.479-1.48L93.88,32.5,92.4,33.986a1.61,1.61,0,0,0-.179,2.067,11.79,11.79,0,0,1,1.992,4.81A1.612,1.612,0,0,0,95.8,42.2h2.094Z" transform="translate(-3.162 0)"/>
  </g>
</svg>
