<svg id="telegram" xmlns="http://www.w3.org/2000/svg" width="29.893" height="29.893" viewBox="0 0 29.893 29.893">
  <path id="telegram-2" data-name="telegram" d="M14.946,29.893A14.946,14.946,0,1,0,0,14.946,14.944,14.944,0,0,0,14.946,29.893ZM6.839,14.622,21.25,9.066c.669-.242,1.253.163,1.036,1.175h0L19.834,21.8c-.182.82-.669,1.019-1.35.633l-3.737-2.754-1.8,1.736a.942.942,0,0,1-.754.367l.265-3.8,6.925-6.256c.3-.265-.067-.415-.465-.151L10.359,16.96,6.67,15.809c-.8-.254-.818-.8.169-1.187Z" fill="#fff"/>
</svg>
